<svg xmlns="http://www.w3.org/2000/svg" viewBox="0 0 512 512"><title>Artboard 122</title><g id="Afro_Male_Farmer-2" data-name="Afro Male Farmer"><rect x="341.33333" y="192" width="42.66667" height="64" rx="21.33331" ry="21.33331" style="fill:#361200"/><rect x="128" y="192" width="42.66667" height="64" rx="21.33331" ry="21.33331" style="fill:#552a1f"/><path d="M192,277.33333v64a21.33334,21.33334,0,0,1-21.33333,21.33334h-64A85.33333,85.33333,0,0,0,21.33333,448v42.66667H490.66667V448a85.33333,85.33333,0,0,0-85.33334-85.33333h-64A21.33334,21.33334,0,0,1,320,341.33333v-64Z" style="fill:#552a1f"/><rect x="149.33333" y="405.33333" width="85.33333" height="42.66667" rx="21.33331" ry="21.33331" style="fill:#edbda4"/><circle cx="213.33333" cy="426.66667" r="21.33333" style="fill:#f5d9cb"/><path d="M341.33333,362.66667A21.33356,21.33356,0,0,1,320,341.33333v-64H256v85.33334h21.33333V384H234.66667v21.33333a21.33333,21.33333,0,1,0,42.66666,0h85.33334V362.66667Z" style="fill:#361200"/><path d="M234.66667,426.66667v64h256V448a85.33333,85.33333,0,0,0-85.33334-85.33333h-64L320,341.33333l-21.33333,21.33334Z" style="fill:#086b47"/><polygon points="405.333 362.667 298.667 362.667 277.333 384 277.333 405.333 405.333 405.333 405.333 362.667" style="fill:#339773"/><polygon points="362.667 426.667 277.333 490.667 256 490.667 256 405.333 298.667 362.667 362.667 362.667 362.667 426.667" style="fill:#004c33"/><polygon points="320 405.333 320 362.667 298.667 362.667 277.333 384 277.333 405.333 320 405.333" style="fill:#088156"/><path d="M192,341.33333l21.33333,21.33334,64,64v64h-256V448a85.33333,85.33333,0,0,1,85.33334-85.33333h64Z" style="fill:#339773"/><rect x="106.66667" y="362.66667" width="106.66667" height="42.66667" style="fill:#57a98c"/><polygon points="234.667 384 213.333 362.667 192 362.667 192 490.667 234.667 490.667 234.667 384" style="fill:#57a98c"/><rect x="64" y="405.33333" width="42.66667" height="42.66667" style="fill:#088156"/><rect x="21.33333" y="448" width="256" height="42.66667" style="fill:#57a98c"/><polygon points="234.667 384 192 384 192 426.667 277.333 426.667 234.667 384" style="fill:#088156"/><polygon points="234.667 384 213.333 362.667 192 362.667 192 405.333 234.667 405.333 234.667 384" style="fill:#086b47"/><rect x="106.66667" y="362.66667" width="64" height="21.33333" style="fill:#088156"/><polygon points="192 341.333 170.667 362.667 170.667 405.333 234.667 384 192 341.333" style="fill:#57a98c"/><circle cx="245.33333" cy="437.33333" r="10.66667" style="fill:#086b47"/><polygon points="277.333 384 341.333 405.333 341.333 362.667 320 341.333 277.333 384" style="fill:#086b47"/><rect x="149.33333" y="42.66667" width="213.33333" height="298.66656" rx="106.66656" ry="106.66656" style="fill:#8f492b"/><path d="M320,64.48307v84.85026H277.33333v21.33334H320v42.66659a21.33333,21.33333,0,0,1,21.33333,21.33333v.00008A21.33333,21.33333,0,0,1,320,256H256v64h21.33333v19.18359a106.69065,106.69065,0,0,0,85.33334-104.51692V149.33333C362.66667,114.54948,345.76562,83.95443,320,64.48307Z" style="fill:#552a1f"/><path d="M149.33333,213.33333h21.33334V106.66667S192,85.33333,256,85.33333s85.33333,21.33334,85.33333,21.33334V213.33333h21.33331L362.66669,192,384,170.66667V149.33321A127.99987,127.99987,0,0,0,256.00013,21.33333h-.00026A127.99987,127.99987,0,0,0,128,149.33321v21.33346L149.33331,192Z" style="fill:#062d3c"/><path d="M284.24349,24.5625C268.681,31.2474,256,47.57031,256,64c0,7.53906,2.76042,15.03255,7.14844,21.63021,58.11849,1.59114,78.18489,21.03646,78.18489,21.03646V213.33333h21.33334V192L384,170.66667V149.33333A127.97227,127.97227,0,0,0,284.24349,24.5625Z" style="fill:#012334"/><path d="M186.84375,82.29167,172.42708,66.5625c1.07292-.97917,26.625-23.89583,72.90625-23.89583V64C207.25,64,187.04167,82.11458,186.84375,82.29167Z" style="fill:#224552"/><path d="M325.90625,81.22917C311.76042,64.16667,288.69792,64,288.13542,64H288.125l-.30208-21.33333c1.32291.03125,33.63541-.23959,54.5,24.95833Z" style="fill:#062d3c"/><rect x="149.33333" y="106.66667" width="21.33333" height="21.33333" style="fill:#224552"/><rect x="149.33333" y="149.33333" width="21.33333" height="21.33333" style="fill:#224552"/><rect x="341.33333" y="106.66667" width="21.33333" height="21.33333" style="fill:#062d3c"/><rect x="341.33333" y="149.33333" width="21.33333" height="21.33333" style="fill:#062d3c"/><polygon points="234.667 234.667 234.667 256 277.333 256 277.333 192 320 192 320 170.667 256 170.667 256 234.667 234.667 234.667" style="fill:#361200"/><rect x="298.66667" y="192" width="21.33333" height="21.33333" style="fill:#290300"/><rect x="192" y="192" width="21.33333" height="21.33333" style="fill:#290300"/><rect x="234.66667" y="277.33333" width="42.66667" height="21.33333" style="fill:#c6262d"/><rect x="106.66667" y="362.66667" width="42.66667" height="42.66667" style="fill:#088156"/><rect x="149.33333" y="405.33333" width="42.66667" height="42.66667" style="fill:#088156"/><rect x="106.66667" y="362.66667" width="42.66667" height="21.33333" style="fill:#086b47"/><path d="M64,490.66667H42.66667V448a64.07,64.07,0,0,1,64-64v21.33333A42.70887,42.70887,0,0,0,64,448Z" style="fill:#57a98c"/><rect x="106.66667" y="448" width="42.66667" height="42.66667" style="fill:#088156"/><rect x="192" y="448" width="42.66667" height="42.66667" style="fill:#088156"/><rect x="21.33333" y="448" width="42.66667" height="42.66667" style="fill:#088156"/><rect x="277.33333" y="448" width="213.33333" height="42.66667" style="fill:#339773"/><rect x="320" y="448" width="42.66667" height="42.66667" style="fill:#00593b"/><rect x="405.33333" y="448" width="42.66667" height="42.66667" style="fill:#00593b"/><rect x="362.66667" y="405.33333" width="42.66667" height="42.66667" style="fill:#00593b"/><rect x="42.66667" y="448" width="21.33333" height="42.66667" style="fill:#339773"/><rect x="405.33333" y="405.33333" width="42.66667" height="42.66667" style="fill:#339773"/><rect x="320" y="405.33333" width="42.66667" height="42.66667" style="fill:#088156"/><polygon points="106.667 362.667 85.333 490.667 426.667 490.667 405.333 362.667 362.667 362.667 362.667 448 149.653 448 149.333 362.667 106.667 362.667" style="fill:#062d3c"/><rect x="106.66667" y="362.66667" width="42.66667" height="21.33333" style="fill:#345460"/><rect x="149.33333" y="448" width="213.33333" height="21.33333" style="fill:#345460"/><rect x="128" y="384" width="21.33333" height="64" style="fill:#012334"/><rect x="362.66667" y="362.66667" width="21.33333" height="85.33333" style="fill:#607a8a"/></g></svg>