<svg xmlns="http://www.w3.org/2000/svg" viewBox="0 0 512 512"><title>Artboard 145</title><g id="Old_Sport_Woman" data-name="Old Sport Woman"><circle cx="341.33333" cy="213.33333" r="85.33333" style="fill:#e0e5e8"/><circle cx="170.66667" cy="106.66667" r="85.33333" style="fill:#e0e5e8"/><circle cx="170.66667" cy="213.33333" r="85.33333" style="fill:#e0e5e8"/><circle cx="362.66667" cy="149.33333" r="64" style="fill:#e0e5e8"/><circle cx="277.33333" cy="106.66667" r="85.33333" style="fill:#e0e5e8"/><rect x="341.33333" y="192" width="42.66667" height="64" rx="21.33331" ry="21.33331" style="fill:#cb7956"/><rect x="128" y="192" width="42.66667" height="64" rx="21.33331" ry="21.33331" style="fill:#e29971"/><path d="M192,277.33333v64a21.33334,21.33334,0,0,1-21.33333,21.33334h-64A85.33333,85.33333,0,0,0,21.33333,448v42.66667H490.66667V448a85.33333,85.33333,0,0,0-85.33334-85.33333h-64A21.33334,21.33334,0,0,1,320,341.33333v-64Z" style="fill:#e29971"/><rect x="384" y="448" width="42.66667" height="42.66667" style="fill:#cb7956"/><rect x="149.33333" y="405.33333" width="85.33333" height="42.66667" rx="21.33331" ry="21.33331" style="fill:#edbda4"/><circle cx="213.33333" cy="426.66667" r="21.33333" style="fill:#f5d9cb"/><path d="M64,490.66667H42.66667V448a64.07,64.07,0,0,1,64-64v21.33333A42.71555,42.71555,0,0,0,64,448Z" style="fill:#edbda4"/><path d="M341.33333,362.66667A21.33334,21.33334,0,0,1,320,341.33333v-64H234.66667v128a21.33333,21.33333,0,1,0,42.66666,0h85.33336A21.33331,21.33331,0,0,0,384,384v0a21.33331,21.33331,0,0,0-21.33331-21.33331Z" style="fill:#cb7956"/><path d="M362.66667,362.66667H341.33333S341.33333,448,256,448s-85.33333-85.33333-85.33333-85.33333H149.33333s0,85.33333-42.66666,128H405.33333C362.66667,448,362.66667,362.66667,362.66667,362.66667Z" style="fill:#c6262d"/><path d="M266.66667,490.66667H256V469.33333h10.66667a95.26857,95.26857,0,0,0,77-38.65625l17.08333,12.75A117.83973,117.83973,0,0,1,266.66667,490.66667Z" style="fill:#ab0008"/><rect x="149.33333" y="42.66667" width="213.33333" height="298.66656" rx="106.66656" ry="106.66656" style="fill:#edbda4"/><path d="M320,64.48307v84.85026H277.33333v21.33334H320v42.66659a21.33333,21.33333,0,0,1,21.33333,21.33333v.00008A21.33333,21.33333,0,0,1,320,256H256v64h21.33333v19.18359a106.69065,106.69065,0,0,0,85.33334-104.51692V149.33333C362.66667,114.54948,345.76562,83.95443,320,64.48307Z" style="fill:#e29971"/><polygon points="234.667 234.667 234.667 256 277.333 256 277.333 192 320 192 320 170.667 256 170.667 256 234.667 234.667 234.667" style="fill:#cb7956"/><rect x="298.66667" y="192" width="21.33333" height="21.33333" style="fill:#4c2c1a"/><rect x="192" y="192" width="21.33333" height="21.33333" style="fill:#4c2c1a"/><rect x="234.66667" y="277.33333" width="42.66667" height="21.33333" style="fill:#ce464d"/><rect x="192" y="149.33333" width="64" height="21.33333" style="fill:#e29971"/><rect x="213.33333" y="106.66667" width="85.33333" height="21.33333" style="fill:#e29971"/><rect x="192" y="128" width="128" height="21.33333" style="fill:#f5d9cb"/><rect x="213.33333" y="277.33333" width="21.33333" height="42.66667" style="fill:#e29971"/><rect x="277.33333" y="277.33333" width="21.33333" height="42.66667" style="fill:#cb7956"/><path d="M106.66667,192l42.66666,21.33333V170.66656l21.33328-21.33328V85.33333H256v.00005A42.66665,42.66665,0,0,0,298.66662,128h42.66671v21.33333l21.33334,21.33334v42.66666L405.33333,192v-.00015a149.333,149.333,0,0,0-149.333-149.333h-.0006a149.333,149.333,0,0,0-149.333,149.333Z" style="fill:#e0e5e8"/><path d="M170.66667,85.33333a42.66667,42.66667,0,0,1,85.33333,0Z" style="fill:#a2b2ba"/><rect x="106.66667" y="170.66667" width="42.66667" height="21.33333" style="fill:#f2f4f5"/><path d="M341.33333,106.66667H320A42.70887,42.70887,0,0,0,277.33333,64V42.66667A64.07,64.07,0,0,1,341.33333,106.66667Z" style="fill:#f2f4f5"/><path d="M405.33333,149.33333H384A21.36113,21.36113,0,0,0,362.66667,128V106.66667A42.70885,42.70885,0,0,1,405.33333,149.33333Z" style="fill:#f2f4f5"/><path d="M128,106.66667H106.66667a64.07,64.07,0,0,1,64-64V64A42.70887,42.70887,0,0,0,128,106.66667Z" style="fill:#f2f4f5"/></g></svg>