<svg xmlns="http://www.w3.org/2000/svg" viewBox="0 0 512 512"><title>Artboard 155</title><g id="Indian_Woman" data-name="Indian Woman"><path d="M106.66667,213.33333c0,24.88891,21.33354,149.33334,149.33344,149.33334S405.33333,238.22224,405.33333,213.33333Z" style="fill:#062d3c"/><path d="M256.00011,362.66667c127.99989,0,149.33322-124.44443,149.33322-149.33334H256Z" style="fill:#012334"/><rect x="341.33333" y="192" width="42.66667" height="64" rx="21.33331" ry="21.33331" style="fill:#361200"/><rect x="128" y="192" width="42.66667" height="64" rx="21.33331" ry="21.33331" style="fill:#552a1f"/><path d="M192,277.33333v64a21.33334,21.33334,0,0,1-21.33333,21.33334h-64A85.33333,85.33333,0,0,0,21.33333,448v42.66667H490.66667V448a85.33333,85.33333,0,0,0-85.33334-85.33333h-64A21.33334,21.33334,0,0,1,320,341.33333v-64Z" style="fill:#552a1f"/><rect x="149.33333" y="405.33333" width="85.33333" height="42.66667" rx="21.33331" ry="21.33331" style="fill:#8f492b"/><circle cx="213.33333" cy="426.66667" r="21.33333" style="fill:#cb7956"/><path d="M405.33333,362.66667h-64a85.33333,85.33333,0,1,1-170.66666,0h-64A85.33255,85.33255,0,0,0,21.33333,448v42.66667H490.66667V448A85.33255,85.33255,0,0,0,405.33333,362.66667Z" style="fill:#edbda4"/><polygon points="256 469.333 213.333 469.333 192 490.667 234.667 490.667 256 469.333" style="fill:#e29971"/><rect x="106.66667" y="362.66667" width="42.66667" height="21.33333" style="fill:#f5d9cb"/><path d="M64,490.66667H42.66667V448a64.07,64.07,0,0,1,64-64v21.33333A42.72225,42.72225,0,0,0,64,448Z" style="fill:#f5d9cb"/><path d="M256,490.66667V469.33333A106.79223,106.79223,0,0,0,362.66667,362.66667H384A128.14,128.14,0,0,1,256,490.66667Z" style="fill:#95daec"/><path d="M213.33333,490.66667l128-128h64A85.33333,85.33333,0,0,1,490.66667,448v42.66667Z" style="fill:#c6262d"/><polygon points="256 490.667 362.667 384 426.667 384 320 490.667 256 490.667" style="fill:#ab0008"/><path d="M341.33333,362.66667A21.33356,21.33356,0,0,1,320,341.33333v-64H234.66667v128a21.33333,21.33333,0,1,0,42.66666,0h85.33334V362.66667Z" style="fill:#361200"/><rect x="149.33333" y="42.66667" width="213.33333" height="298.66656" rx="106.66656" ry="106.66656" style="fill:#8f492b"/><path d="M320,64.48307v84.85026H277.33333v21.33334H320v42.66659a21.33333,21.33333,0,0,1,21.33333,21.33333v.00008A21.33333,21.33333,0,0,1,320,256H256v64h21.33333v19.18359a106.69065,106.69065,0,0,0,85.33334-104.51692V149.33333C362.66667,114.54948,345.76562,83.95443,320,64.48307Z" style="fill:#552a1f"/><polygon points="234.667 234.667 234.667 256 277.333 256 277.333 192 320 192 320 170.667 256 170.667 256 234.667 234.667 234.667" style="fill:#361200"/><rect x="298.66667" y="192" width="21.33333" height="21.33333" style="fill:#290300"/><rect x="192" y="192" width="21.33333" height="21.33333" style="fill:#290300"/><rect x="234.66667" y="277.33333" width="42.66667" height="21.33333" style="fill:#c6262d"/><path d="M256,21.33333h-.00015A149.33319,149.33319,0,0,0,106.66667,170.66652v64.00015l42.66666-21.33334C170.66667,192,170.66667,128,170.66667,128s0-21.33333,21.33333-21.33333S213.33333,128,256,128s42.66667-21.33333,64-21.33333S341.33333,128,341.33333,128s0,64,21.33334,85.33333l42.66666,21.33334V170.66652A149.33319,149.33319,0,0,0,256.00015,21.33333Z" style="fill:#133846"/><path d="M266.66667,128c-38.5625,0-49.9375-7.85417-59.08334-14.16667-6.04166-4.16666-10.39583-7.16666-26.25-7.16666V85.33333c22.5,0,30.9375,5.8125,38.35417,10.9375,7.41667,5.10417,15.0625,10.39584,46.97917,10.39584Z" style="fill:#012334"/><path d="M256,21.33333V128c42.66667,0,42.66667-21.33333,64-21.33333S341.33333,128,341.33333,128s0,64,21.33334,85.33333l42.66666,21.33334v-64A149.33322,149.33322,0,0,0,256,21.33333Z" style="fill:#062d3c"/><rect x="277.33333" y="42.66667" width="21.33333" height="42.66667" style="fill:#224552"/><circle cx="256" cy="42.66667" r="21.33333" style="fill:#e29971"/><circle cx="256" cy="85.33333" r="21.33333" style="fill:#e29971"/><circle cx="256" cy="128" r="21.33333" style="fill:#e29971"/><circle cx="245.33333" cy="117.33333" r="10.66667" style="fill:#edbda4"/><circle cx="245.33333" cy="74.66667" r="10.66667" style="fill:#edbda4"/><circle cx="245.33333" cy="32" r="10.66667" style="fill:#f5d9cb"/><polygon points="213.333 490.667 341.333 362.667 405.333 362.667 277.333 490.667 213.333 490.667" style="fill:#72cee6"/><polygon points="320 384 213.333 490.667 234.667 490.667 341.333 384 320 384" style="fill:#caecf6"/><path d="M149.33333,149.33333H128A106.79223,106.79223,0,0,1,234.66667,42.66667V64A85.41772,85.41772,0,0,0,149.33333,149.33333Z" style="fill:#607a8a"/><path d="M384,191.91667H362.66667V149.33333A85.41772,85.41772,0,0,0,277.33333,64V42.66667A106.79223,106.79223,0,0,1,384,149.33333Z" style="fill:#224552"/><rect x="128" y="170.66667" width="21.33333" height="21.33333" style="fill:#607a8a"/><rect x="384" y="170.66667" width="21.33333" height="21.33333" style="fill:#224552"/><rect x="362.66667" y="192" width="21.33333" height="21.33333" style="fill:#224552"/></g></svg>