<svg xmlns="http://www.w3.org/2000/svg" viewBox="0 0 512 512"><title>Artboard 154</title><g id="Sikh_Man" data-name="Sikh Man"><rect x="341.33333" y="192" width="42.66667" height="64" rx="21.33331" ry="21.33331" style="fill:#361200"/><rect x="128" y="192" width="42.66667" height="64" rx="21.33331" ry="21.33331" style="fill:#552a1f"/><path d="M192,277.33333v64a21.33334,21.33334,0,0,1-21.33333,21.33334h-64A85.33333,85.33333,0,0,0,21.33333,448v42.66667H490.66667V448a85.33333,85.33333,0,0,0-85.33334-85.33333h-64A21.33334,21.33334,0,0,1,320,341.33333v-64Z" style="fill:#552a1f"/><rect x="149.33333" y="405.33333" width="85.33333" height="42.66667" rx="21.33331" ry="21.33331" style="fill:#8f492b"/><circle cx="213.33333" cy="426.66667" r="21.33333" style="fill:#cb7956"/><path d="M341.33333,362.66667A21.33356,21.33356,0,0,1,320,341.33333v-64H234.66667v128a21.33333,21.33333,0,1,0,42.66666,0h85.33334V362.66667Z" style="fill:#361200"/><path d="M405.33333,362.66667h-63.9999v.00009a42.66667,42.66667,0,0,1-42.66667,42.66657H213.33324a42.66667,42.66667,0,0,1-42.66667-42.66662v0h-63.9999A85.33333,85.33333,0,0,0,21.33333,448v42.66667H490.66667V448A85.33333,85.33333,0,0,0,405.33333,362.66667Z" style="fill:#a2b2ba"/><path d="M405.33333,362.66667h-64a42.6671,42.6671,0,0,1-42.66666,42.66666v85.33334h192V448A85.33255,85.33255,0,0,0,405.33333,362.66667Z" style="fill:#a2b2ba"/><rect x="405.33333" y="426.66667" width="42.66667" height="64" style="fill:#607a8a"/><path d="M64,490.66667H42.66667V448a64.07,64.07,0,0,1,64-64v21.33333A42.71556,42.71556,0,0,0,64,448Z" style="fill:#c4ced3"/><path d="M320,448V426.66667A42.71556,42.71556,0,0,0,362.66667,384V362.66667H384V384A64.07,64.07,0,0,1,320,448Z" style="fill:#607a8a"/><rect x="85.33333" y="362.66667" width="85.33333" height="128" style="fill:#8f492b"/><rect x="149.33333" y="384" width="21.33333" height="106.66667" style="fill:#552a1f"/><rect x="341.33333" y="362.66667" width="85.33333" height="128" style="fill:#552a1f"/><rect x="149.33333" y="42.66667" width="213.33333" height="298.66656" rx="106.66656" ry="106.66656" style="fill:#8f492b"/><path d="M320,64.48307v84.85026H277.33333v21.33334H320v42.66659a21.33333,21.33333,0,0,1,21.33333,21.33333v.00008A21.33333,21.33333,0,0,1,320,256H256v64h21.33333v19.18359a106.69065,106.69065,0,0,0,85.33334-104.51692V149.33333C362.66667,114.54948,345.76563,83.95443,320,64.48307Z" style="fill:#552a1f"/><rect x="341.33333" y="213.33333" width="21.33333" height="42.66667" style="fill:#012334"/><rect x="234.66667" y="256" width="42.66667" height="21.33333" style="fill:#062d3c"/><rect x="256" y="256" width="21.33333" height="21.33333" style="fill:#012334"/><rect x="213.33333" y="277.33333" width="21.33333" height="21.33333" style="fill:#062d3c"/><rect x="213.33333" y="256" width="21.33333" height="21.33333" style="fill:#552a1f"/><rect x="277.33333" y="277.33333" width="21.33333" height="21.33333" style="fill:#012334"/><rect x="277.33333" y="256" width="21.33333" height="21.33333" style="fill:#361200"/><path d="M128,174.32691a42.66661,42.66661,0,0,0,12.49676,30.16985l8.83657,8.83657,21.33334,0V128h-.00005A42.66662,42.66662,0,0,0,128,170.66662Z" style="fill:#133846"/><rect x="149.33333" y="192" width="21.33333" height="42.66667" style="fill:#012334"/><path d="M341.33333,128v85.33331l21.33334,0,8.83657-8.83657A42.66661,42.66661,0,0,0,384,174.32691v-3.66029A42.66662,42.66662,0,0,0,341.33338,128Z" style="fill:#012334"/><rect x="341.33333" y="149.33333" width="21.33333" height="42.66667" style="fill:#012334"/><rect x="149.33333" y="149.33333" width="21.33333" height="21.33333" style="fill:#062d3c"/><rect x="192" y="149.33333" width="42.66667" height="21.33333" style="fill:#552a1f"/><polygon points="234.667 234.667 234.667 256 277.333 256 277.333 192 320 192 320 170.667 256 170.667 256 234.667 234.667 234.667" style="fill:#361200"/><rect x="298.66667" y="192" width="21.33333" height="21.33333" style="fill:#290300"/><rect x="192" y="192" width="21.33333" height="21.33333" style="fill:#290300"/><rect x="234.66667" y="277.33333" width="42.66667" height="21.33333" style="fill:#c6262d"/><path d="M128,213.33331s21.33333,0,128-85.33331c85.33333,0,128,85.33331,128,85.33331v-62.463c0-69.97488-55.48142-128.82453-125.4528-129.52424q-1.26735-.01268-2.5472-.01272t-2.5473.01272C183.48142,22.04576,128,80.89541,128,150.87029Z" style="fill:#e0e5e8"/><path d="M330.80339,45.60156C304.10937,95.8737,256,128,256,128c85.33333,0,128,85.33333,128,85.33333V150.86979A130.739,130.739,0,0,0,330.80339,45.60156Z" style="fill:#a2b2ba"/><path d="M365.79167,167.54167c-40.80209-40.79167-78.625-60.16667-79-60.35417l9.59375-19.04167c1.66666.83334,41.10416,20.9375,84.48958,64.3125Z" style="fill:#607a8a"/><path d="M384,160H362.66667c0-56.8125-44.38542-83.8125-46.28125-84.9375L327.1875,56.66667C329.5,58.02083,384,90.66667,384,160Z" style="fill:#607a8a"/><path d="M142.04167,170.125l-6.75-20.25c1.25-.41667,125.04166-42.27083,165.16666-102.45833l17.75,11.83333C274.02083,125.54167,147.40625,168.33333,142.04167,170.125Z" style="fill:#c4ced3"/><path d="M142.625,127.22917l-7.91667-19.79167c1.04167-.41667,105.13542-42.375,145.75-82.97917l15.08334,15.08334C251.83333,83.25,147.0625,125.45833,142.625,127.22917Z" style="fill:#c4ced3"/><rect x="234.66667" y="298.66667" width="42.66667" height="64" rx="21.33331" ry="21.33331" style="fill:#133846"/><path d="M256,362.66667A117.47279,117.47279,0,0,1,138.66667,245.33333H160a96,96,0,0,0,192,0h21.33333A117.47279,117.47279,0,0,1,256,362.66667Z" style="fill:#133846"/><path d="M279.45833,360.33333l-4.25-20.91666A96.26155,96.26155,0,0,0,352,245.33333h21.33333A117.684,117.684,0,0,1,279.45833,360.33333Z" style="fill:#012334"/><path d="M149.33331,234.66667h0S170.66667,234.18984,170.66667,256C192,277.33333,192,298.66667,192,298.66667s21.33333,0,21.33333,21.33333c0,0,0,21.33333-21.33333,21.33333l-3.28423-1.09474A88.79535,88.79535,0,0,1,128,256v-.00006C128,234.66656,149.33331,234.66667,149.33331,234.66667Z" style="fill:#133846"/><path d="M362.66667,234.66667h0S341.33333,234.18984,341.33333,256C320,277.33333,320,298.66667,320,298.66667s-21.33333,0-21.33333,21.33333c0,0,0,21.33333,21.33333,21.33333l3.28423-1.09474A88.79535,88.79535,0,0,0,384,256v-.00006C384,234.66656,362.66667,234.66667,362.66667,234.66667Z" style="fill:#012334"/><rect x="170.66667" y="298.66667" width="21.33333" height="21.33333" style="fill:#345460"/><rect x="320" y="298.66667" width="21.33333" height="21.33333" style="fill:#062d3c"/><rect x="341.33333" y="256" width="21.33333" height="21.33333" style="fill:#062d3c"/><rect x="149.33333" y="256" width="21.33333" height="21.33333" style="fill:#345460"/><rect x="256" y="320" width="21.33333" height="21.33333" style="fill:#012334"/><rect x="149.33333" y="213.33333" width="21.33333" height="42.66667" style="fill:#133846"/><circle cx="266.66667" cy="437.33333" r="10.66667" style="fill:#c4ced3"/><circle cx="266.66667" cy="480" r="10.66667" style="fill:#c4ced3"/><rect x="277.33333" y="426.66667" width="21.33333" height="64" style="fill:#607a8a"/><rect x="106.66667" y="362.66667" width="42.66667" height="21.33333" style="fill:#cb7956"/><rect x="341.33333" y="384" width="21.33333" height="106.66667" style="fill:#8f492b"/></g></svg>