<svg xmlns="http://www.w3.org/2000/svg" viewBox="0 0 512 512"><title>Artboard 156</title><g id="Clown"><path d="M149.33333,128C128,128,128,149.33333,128,149.33333s-21.33333,0-21.33333,21.33334c0,0-21.33334,0-21.33334,21.33333s21.33334,21.33333,21.33334,21.33333-21.33334,0-21.33334,21.33334S106.66667,256,106.66667,256s0,21.33333,21.33333,21.33333h0s0,21.33334,21.33333,21.33334c0,0,0,21.33333,21.33334,21.33333,0,0,0,21.334,21.33333,21.334h42.66667V128Z" style="fill:#cb393f"/><path d="M362.66667,128C384,128,384,149.33333,384,149.33333s21.33333,0,21.33333,21.33334c0,0,21.33334,0,21.33334,21.33333s-21.33334,21.33333-21.33334,21.33333,21.33334,0,21.33334,21.33334S405.33333,256,405.33333,256s0,21.33333-21.33333,21.33333h0s0,21.33334-21.33333,21.33334c0,0,0,21.33333-21.33334,21.33333,0,0,0,21.334-21.33333,21.334H277.33333V128Z" style="fill:#c6262d"/><circle cx="373.33333" cy="245.33333" r="32" style="fill:#ab0008"/><circle cx="341.33333" cy="277.33333" r="21.33333" style="fill:#ab0008"/><rect x="341.33333" y="192" width="42.66667" height="64" rx="21.33331" ry="21.33331" style="fill:#cb7956"/><rect x="128" y="192" width="42.66667" height="64" rx="21.33331" ry="21.33331" style="fill:#e29971"/><path d="M192,277.33333v64a21.33334,21.33334,0,0,1-21.33333,21.33334h-64A85.33333,85.33333,0,0,0,21.33333,448v42.66667H490.66667V448a85.33333,85.33333,0,0,0-85.33334-85.33333h-64A21.33334,21.33334,0,0,1,320,341.33333v-64Z" style="fill:#e29971"/><rect x="149.33333" y="405.33333" width="85.33333" height="42.66667" rx="21.33331" ry="21.33331" style="fill:#edbda4"/><circle cx="213.33333" cy="426.66667" r="21.33333" style="fill:#f5d9cb"/><path d="M341.33333,362.66667A21.33334,21.33334,0,0,1,320,341.33333v-64H234.66667v128a21.33333,21.33333,0,1,0,42.66666,0H384A21.33331,21.33331,0,0,0,405.33333,384v0A21.33331,21.33331,0,0,0,384,362.66667Z" style="fill:#cb7956"/><path d="M405.33333,362.66667h-64a85.33333,85.33333,0,1,1-170.66666,0h-64A85.33255,85.33255,0,0,0,21.33333,448v42.66667H490.66667V448A85.33255,85.33255,0,0,0,405.33333,362.66667Z" style="fill:#caecf6"/><path d="M64,490.66667H42.66667V448a64.07,64.07,0,0,1,64-64v21.33333A42.72225,42.72225,0,0,0,64,448Z" style="fill:#e7f6fa"/><circle cx="74.66667" cy="416" r="32" style="fill:#339773"/><circle cx="170.66667" cy="448" r="21.33333" style="fill:#339773"/><circle cx="416" cy="458.66667" r="32" style="fill:#088156"/><path d="M42.66667,469.33333a21.33272,21.33272,0,0,0-21.33334,21.33334H64A21.33272,21.33272,0,0,0,42.66667,469.33333Z" style="fill:#339773"/><circle cx="437.33333" cy="394.66667" r="10.66667" style="fill:#088156"/><rect x="128" y="362.66667" width="42.66667" height="21.33333" style="fill:#e7f6fa"/><path d="M65.4375,436.97917l-20.625-5.5a64.05511,64.05511,0,0,1,46.04167-45.5l5.25,20.66666A42.71341,42.71341,0,0,0,65.4375,436.97917Z" style="fill:#57a98c"/><path d="M256,490.66667V469.33333A106.79223,106.79223,0,0,0,362.66667,362.66667H384A128.14,128.14,0,0,1,256,490.66667Z" style="fill:#95daec"/><rect x="149.33333" y="42.66667" width="213.33333" height="298.66656" rx="106.66656" ry="106.66656" style="fill:#f5d9cb"/><path d="M320,64.48307v84.85026H277.33333v21.33334H320v42.66659a21.33333,21.33333,0,0,1,21.33333,21.33333v.00008A21.33333,21.33333,0,0,1,320,256H256v64h21.33333v19.18359a106.69065,106.69065,0,0,0,85.33334-104.51692V149.33333C362.66667,114.54948,345.76563,83.95443,320,64.48307Z" style="fill:#edbda4"/><rect x="170.66667" y="149.33333" width="64" height="106.66667" rx="31.99997" ry="31.99997" style="fill:#e7f6fa"/><ellipse cx="298.66667" cy="85.33333" rx="49.1596" ry="75.98278" transform="translate(27.13766 236.18278) rotate(-45)" style="fill:#c6262d"/><ellipse cx="320" cy="85.33333" rx="30.67982" ry="51.94699" transform="translate(33.38605 251.26772) rotate(-45)" style="fill:#ab0008"/><path d="M277.33333,42.61478l8.07852-8.07851a45.25477,45.25477,0,0,1,63.99993,0l.00007.00006a45.2548,45.2548,0,0,1,0,63.99994l-8.07852,8.07851h-.00006a63.99994,63.99994,0,0,1-63.99994-63.99994Z" style="fill:#c6262d"/><path d="M349.41146,98.53646a44.84183,44.84183,0,0,0,12.85807-27.85677h0a45.18267,45.18267,0,0,0-55.52474,6.52343L296.07812,87.86979a63.79713,63.79713,0,0,0,45.25521,18.74479Z" style="fill:#95070c"/><ellipse cx="320" cy="42.66667" rx="19.24643" ry="23.23249" transform="translate(63.55594 238.77095) rotate(-45)" style="fill:#d7686d"/><path d="M324.9375,149.33333c-19.625,0-43.02083-11.20833-61.04167-29.22916-29.625-29.64584-38.125-69.33334-18.95833-88.5L260.02083,46.6875c-9.10416,9.10417-2.79166,36.5625,18.95834,58.33333C292.9375,118.97917,310.97917,128,324.9375,128Z" style="fill:#ce464d"/><polygon points="277.333 213.333 277.333 192 320 192 320 170.667 256 170.667 256 213.333 277.333 213.333" style="fill:#e29971"/><rect x="277.33333" y="149.33333" width="64" height="106.66667" rx="31.99997" ry="31.99997" style="fill:#caecf6"/><rect x="277.33333" y="170.66667" width="42.66667" height="21.33333" style="fill:#95daec"/><rect x="298.66667" y="192" width="21.33333" height="21.33333" style="fill:#4c2c1a"/><rect x="192" y="192" width="21.33333" height="21.33333" style="fill:#4c2c1a"/><path d="M256,277.33333S234.66667,256,213.33333,256,192,277.33333,192,277.33333s0,21.33334,21.33333,21.33334h85.33334C320,298.66667,320,277.33333,320,277.33333,320,256,298.66667,256,298.66667,256,277.33333,256,256,277.33333,256,277.33333Z" style="fill:#c6262d"/><circle cx="256" cy="234.66667" r="21.33333" style="fill:#c6262d"/><polygon points="106.667 362.667 85.333 490.667 426.667 490.667 405.333 362.667 362.667 362.667 362.667 448 149.653 448 149.333 362.667 106.667 362.667" style="fill:#c6262d"/><rect x="106.66667" y="362.66667" width="42.66667" height="21.33333" style="fill:#d7686d"/><rect x="149.33333" y="448" width="213.33333" height="21.33333" style="fill:#cb393f"/><rect x="128" y="384" width="21.33333" height="64" style="fill:#95070c"/><rect x="362.66667" y="362.66667" width="21.33333" height="85.33333" style="fill:#d7686d"/><path d="M42.66667,469.33333v21.33334H64A21.33272,21.33272,0,0,0,42.66667,469.33333Z" style="fill:#57a98c"/><rect x="234.66667" y="277.33333" width="42.66667" height="21.33333" style="fill:#caecf6"/><path d="M128,192s0,21.33333,21.33333,21.33333S170.66667,192,170.66667,192V149.33333C170.66667,128,149.33333,128,149.33333,128S128,128,128,149.33333c0,0-21.33333,0-21.33333,21.33334S128,192,128,192Z" style="fill:#cb393f"/><path d="M384,192s0,21.33333-21.33333,21.33333S341.33333,192,341.33333,192V149.33333C341.33333,128,362.66667,128,362.66667,128S384,128,384,149.33333c0,0,21.33333,0,21.33333,21.33334S384,192,384,192Z" style="fill:#c6262d"/><rect x="341.33333" y="149.33333" width="21.33333" height="42.66667" style="fill:#ce464d"/><rect x="149.33333" y="149.33333" width="21.33333" height="42.66667" style="fill:#e08a8e"/><path d="M469.33333,469.33333a21.33356,21.33356,0,0,0,21.33334,21.33334V448A21.33272,21.33272,0,0,0,469.33333,469.33333Z" style="fill:#088156"/></g></svg>