<svg xmlns="http://www.w3.org/2000/svg" viewBox="0 0 512 512"><title>Artboard 123</title><g id="Afro_Male_Farmer" data-name="Afro Male Farmer"><path d="M405.33333,170.66667c0-85.33334-64-149.33334-149.33333-149.33334s-149.33333,64-149.33333,149.33334c0,64-21.33334,42.66666-21.33334,85.33333S128,298.66667,128,341.33333c0,63.79167,42.41406,68.44662,127.595,68.47657v.0039c.13933,0,.26563-.0013.405-.0013s.26562.0013.40495.0013v-.0039C341.58594,409.78,384,405.125,384,341.33333c0-42.66666,42.66667-42.66666,42.66667-85.33333S405.33333,234.66667,405.33333,170.66667Z" style="fill:#062d3c"/><path d="M405.33333,170.66667c0-85.33334-64-149.33334-149.33333-149.33334A163.73142,163.73142,0,0,0,234.66667,22.875V234.66667h189C417.80208,218.71354,405.33333,219.64193,405.33333,170.66667Z" style="fill:#012334"/><path d="M256,234.66667V384H372.57552C380.13672,374.04818,384,360.36719,384,341.33333c0-42.66666,42.66667-42.66666,42.66667-85.33333,0-10.01562-1.20052-16.4388-3-21.33333Z" style="fill:#012334"/><rect x="341.33333" y="192" width="42.66667" height="64" rx="21.33331" ry="21.33331" style="fill:#361200"/><rect x="128" y="192" width="42.66667" height="64" rx="21.33331" ry="21.33331" style="fill:#552a1f"/><path d="M192,277.33333v64a21.33334,21.33334,0,0,1-21.33333,21.33334h-64A85.33333,85.33333,0,0,0,21.33333,448v42.66667H490.66667V448a85.33333,85.33333,0,0,0-85.33334-85.33333h-64A21.33334,21.33334,0,0,1,320,341.33333v-64Z" style="fill:#552a1f"/><rect x="149.33333" y="405.33333" width="85.33333" height="42.66667" rx="21.33331" ry="21.33331" style="fill:#edbda4"/><circle cx="213.33333" cy="426.66667" r="21.33333" style="fill:#f5d9cb"/><path d="M341.33333,362.66667A21.33356,21.33356,0,0,1,320,341.33333v-64H256V384H234.66667v21.33333a21.33333,21.33333,0,1,0,42.66666,0h85.33334V362.66667Z" style="fill:#361200"/><path d="M234.66667,426.66667v64h256V448a85.33333,85.33333,0,0,0-85.33334-85.33333h-64L320,341.33333l-21.33333,21.33334Z" style="fill:#086b47"/><polygon points="405.333 362.667 298.667 362.667 277.333 384 277.333 405.333 405.333 405.333 405.333 362.667" style="fill:#339773"/><polygon points="362.667 426.667 277.333 490.667 256 490.667 256 405.333 298.667 362.667 362.667 362.667 362.667 426.667" style="fill:#004c33"/><polygon points="320 405.333 320 362.667 298.667 362.667 277.333 384 277.333 405.333 320 405.333" style="fill:#088156"/><path d="M192,341.33333l21.33333,21.33334,64,64v64h-256V448a85.33333,85.33333,0,0,1,85.33334-85.33333h64Z" style="fill:#339773"/><rect x="106.66667" y="362.66667" width="106.66667" height="42.66667" style="fill:#57a98c"/><polygon points="234.667 384 213.333 362.667 192 362.667 192 490.667 234.667 490.667 234.667 384" style="fill:#57a98c"/><rect x="64" y="405.33333" width="42.66667" height="42.66667" style="fill:#088156"/><rect x="21.33333" y="448" width="256" height="42.66667" style="fill:#57a98c"/><polygon points="234.667 384 192 384 192 426.667 277.333 426.667 234.667 384" style="fill:#088156"/><polygon points="234.667 384 213.333 362.667 192 362.667 192 405.333 234.667 405.333 234.667 384" style="fill:#086b47"/><rect x="106.66667" y="362.66667" width="64" height="21.33333" style="fill:#088156"/><polygon points="192 341.333 170.667 362.667 170.667 405.333 234.667 384 192 341.333" style="fill:#57a98c"/><circle cx="245.33333" cy="437.33333" r="10.66667" style="fill:#086b47"/><polygon points="277.333 384 341.333 405.333 341.333 362.667 320 341.333 277.333 384" style="fill:#086b47"/><rect x="149.33333" y="42.66667" width="213.33333" height="298.66656" rx="106.66656" ry="106.66656" style="fill:#8f492b"/><path d="M320,64.48307v84.85026H277.33333v21.33334H320v42.66659a21.33333,21.33333,0,0,1,21.33333,21.33333v.00008A21.33333,21.33333,0,0,1,320,256H256v64h21.33333v19.18359a106.69065,106.69065,0,0,0,85.33334-104.51692V149.33333C362.66667,114.54948,345.76562,83.95443,320,64.48307Z" style="fill:#552a1f"/><polygon points="234.667 234.667 234.667 256 277.333 256 277.333 192 320 192 320 170.667 256 170.667 256 234.667 234.667 234.667" style="fill:#361200"/><rect x="298.66667" y="192" width="21.33333" height="21.33333" style="fill:#290300"/><rect x="192" y="192" width="21.33333" height="21.33333" style="fill:#290300"/><rect x="234.66667" y="277.33333" width="42.66667" height="21.33333" style="fill:#c6262d"/><rect x="106.66667" y="362.66667" width="42.66667" height="42.66667" style="fill:#088156"/><rect x="149.33333" y="405.33333" width="42.66667" height="42.66667" style="fill:#088156"/><rect x="106.66667" y="362.66667" width="42.66667" height="21.33333" style="fill:#086b47"/><path d="M64,490.66667H42.66667V448a64.07,64.07,0,0,1,64-64v21.33333A42.70887,42.70887,0,0,0,64,448Z" style="fill:#57a98c"/><rect x="106.66667" y="448" width="42.66667" height="42.66667" style="fill:#088156"/><rect x="192" y="448" width="42.66667" height="42.66667" style="fill:#088156"/><rect x="21.33333" y="448" width="42.66667" height="42.66667" style="fill:#088156"/><rect x="277.33333" y="448" width="213.33333" height="42.66667" style="fill:#339773"/><rect x="320" y="448" width="42.66667" height="42.66667" style="fill:#00593b"/><rect x="405.33333" y="448" width="42.66667" height="42.66667" style="fill:#00593b"/><rect x="362.66667" y="405.33333" width="42.66667" height="42.66667" style="fill:#00593b"/><rect x="42.66667" y="448" width="21.33333" height="42.66667" style="fill:#339773"/><rect x="405.33333" y="405.33333" width="42.66667" height="42.66667" style="fill:#339773"/><rect x="320" y="405.33333" width="42.66667" height="42.66667" style="fill:#088156"/><polygon points="106.667 362.667 85.333 490.667 426.667 490.667 405.333 362.667 362.667 362.667 362.667 448 149.653 448 149.333 362.667 106.667 362.667" style="fill:#552a1f"/><rect x="106.66667" y="362.66667" width="42.66667" height="21.33333" style="fill:#8f492b"/><rect x="149.33333" y="448" width="213.33333" height="21.33333" style="fill:#8f492b"/><rect x="128" y="384" width="21.33333" height="64" style="fill:#290300"/><rect x="362.66667" y="362.66667" width="21.33333" height="85.33333" style="fill:#cb7956"/><path d="M234.66667,106.66667s0,42.66666,42.66666,42.66666S320,192,320,192c0,42.66667,42.66667,42.66667,42.66667,42.66667H384V170.66654A127.99987,127.99987,0,0,0,256.00013,42.66667h-.00026A127.99987,127.99987,0,0,0,128,170.66654V192l21.33333,21.33338V192C170.66667,192,192,170.66667,192,149.33333V106.66667Z" style="fill:#062d3c"/><path d="M256,42.66667a128.25257,128.25257,0,0,0-21.33333,1.91927v62.08073s0,42.66666,42.66666,42.66666S320,192,320,192c0,42.66667,42.66667,42.66667,42.66667,42.66667H384v-64A127.99966,127.99966,0,0,0,256,42.66667Z" style="fill:#012334"/><rect x="192" y="85.33333" width="42.66667" height="21.33333" style="fill:#552a1f"/><path d="M405.33333,213.33333H394.66667A53.39612,53.39612,0,0,1,341.33333,160a32.035,32.035,0,0,0-32-32A53.39611,53.39611,0,0,1,256,74.66667V64h21.33333V74.66667a32.035,32.035,0,0,0,32,32A53.39612,53.39612,0,0,1,362.66667,160a32.035,32.035,0,0,0,32,32h10.66666Z" style="fill:#062d3c"/><path d="M352,85.33333A53.10247,53.10247,0,0,1,302.55208,52l19.77084-8A31.881,31.881,0,0,0,352,64Z" style="fill:#062d3c"/><path d="M117.33333,170.66667V149.33333a32.035,32.035,0,0,0,32-32v-32h21.33334v32A53.39613,53.39613,0,0,1,117.33333,170.66667Z" style="fill:#224552"/><rect x="213.33333" y="42.66667" width="21.33333" height="42.66667" style="fill:#361200"/><path d="M362.66667,362.66667H341.33333V336a64.32873,64.32873,0,0,1,25.59375-51.19792A42.89235,42.89235,0,0,0,384,250.66667v-16h21.33333v16a64.32867,64.32867,0,0,1-25.59375,51.19791A42.89236,42.89236,0,0,0,362.66667,336Z" style="fill:#062d3c"/><path d="M170.66667,362.66667H149.33333V336a42.89236,42.89236,0,0,0-17.07291-34.13542,64.32867,64.32867,0,0,1-25.59375-51.19791V213.33333H128v37.33334a42.89235,42.89235,0,0,0,17.07292,34.13541A64.32873,64.32873,0,0,1,170.66667,336Z" style="fill:#224552"/></g></svg>