<svg xmlns="http://www.w3.org/2000/svg" viewBox="0 0 512 512"><title>Artboard 133</title><g id="Female_Scientist" data-name="Female Scientist"><path d="M128,149.33321C128,191.99987,106.66667,234.66667,64,256c0,0,42.66667,106.66667,192,85.33333v-192Z" style="fill:#e0e5e8"/><path d="M124.875,295.54167l-15.09375-15.07292c.19792-.19792,20.5-20.89583,40.67708-61.23958l19.08334,9.54166C147.6875,272.47917,125.80208,294.625,124.875,295.54167Z" style="fill:#c4ced3"/><path d="M167.54167,316.875l-15.09375-15.07292c.19791-.19791,20.5-20.89583,40.67708-61.23958l19.08333,9.54167C190.35417,293.8125,168.46875,315.95833,167.54167,316.875Z" style="fill:#c4ced3"/><path d="M384,149.33321C384,191.99987,405.33333,234.66667,448,256c0,0-42.66667,106.66667-192,85.33333v-192Z" style="fill:#c4ced3"/><path d="M387.125,295.54167c-.92708-.91667-22.8125-23.0625-44.66667-66.77084l19.08334-9.54166c20.17708,40.34375,40.47916,61.04166,40.67708,61.23958Z" style="fill:#a2b2ba"/><path d="M344.45833,316.875c-.92708-.91667-22.8125-23.0625-44.66666-66.77083L318.875,240.5625c20.17708,40.34375,40.47917,61.04167,40.67708,61.23958Z" style="fill:#a2b2ba"/><rect x="341.33333" y="192" width="42.66667" height="64" rx="21.33331" ry="21.33331" style="fill:#cb7956"/><rect x="128" y="192" width="42.66667" height="64" rx="21.33331" ry="21.33331" style="fill:#e29971"/><path d="M192,277.33333v64a21.33334,21.33334,0,0,1-21.33333,21.33334h-64A85.33333,85.33333,0,0,0,21.33333,448v42.66667H490.66667V448a85.33333,85.33333,0,0,0-85.33334-85.33333h-64A21.33334,21.33334,0,0,1,320,341.33333v-64Z" style="fill:#e29971"/><path d="M341.33333,362.66667A21.33356,21.33356,0,0,1,320,341.33333v-64H256V384l-21.33333,0v21.33331a21.33333,21.33333,0,1,0,42.66666,0h85.33334V362.66667Z" style="fill:#cb7956"/><path d="M234.66667,426.66667v64h256V448a85.33333,85.33333,0,0,0-85.33334-85.33333h-64L320,341.33333l-21.33333,21.33334Z" style="fill:#cb393f"/><path d="M362.66667,362.66675A85.33325,85.33325,0,0,1,277.33342,448H256V405.33333l42.66667-42.66666h64Z" style="fill:#c6262d"/><path d="M234.66667,426.66667H277.3334a63.99993,63.99993,0,0,0,63.99993-63.99994v-.00006L320,341.33333Z" style="fill:#cb393f"/><path d="M192,341.33333l21.33333,21.33334,64,64v64h-256V448a85.33333,85.33333,0,0,1,85.33334-85.33333h64Z" style="fill:#ce464d"/><path d="M170.66667,341.33333H192l-21.33333,21.33334v128H21.33333V448a85.33333,85.33333,0,0,1,85.33334-85.33333h42.66669Z" style="fill:#caecf6"/><path d="M320,341.33333l21.33333,21.33329v128H490.66667V448a85.33333,85.33333,0,0,0-85.33334-85.33333H362.66664l-21.33331-21.33334Z" style="fill:#95daec"/><path d="M362.66664,362.66667S448,384,469.33333,490.66667H362.66666Z" style="fill:#72cee6"/><path d="M341.33333,341.33333s64,21.33334,85.33334,85.33334L384,448l42.66667,42.66667H341.33333V341.33333Z" style="fill:#caecf6"/><path d="M170.66667,341.33333s-64,21.33334-85.33334,85.33334L128,448,85.33333,490.66667h85.33334V341.33333Z" style="fill:#e7f6fa"/><polygon points="149.333 384 170.667 362.667 170.667 490.667 149.333 490.667 149.333 384" style="fill:#b4e5f2"/><polygon points="341.333 362.667 362.667 384 362.667 490.667 341.333 490.667 341.333 362.667" style="fill:#e7f6fa"/><path d="M64,490.66667H42.66667V448a64.07,64.07,0,0,1,64-64v21.33333A42.70887,42.70887,0,0,0,64,448Z" style="fill:#e7f6fa"/><path d="M192,341.33333l-21.33333,21.33334v.00008A85.33324,85.33324,0,0,0,255.99991,448h21.3334l0-21.33333Z" style="fill:#cb393f"/><rect x="149.33333" y="42.66667" width="213.33333" height="298.66656" rx="106.66656" ry="106.66656" style="fill:#edbda4"/><path d="M320,64.48307v84.85026H277.33333v21.33334H320v42.66659a21.33333,21.33333,0,0,1,21.33333,21.33333v.00008A21.33333,21.33333,0,0,1,320,256H256v64h21.33333v19.18359a106.69065,106.69065,0,0,0,85.33334-104.51692V149.33333C362.66667,114.54948,345.76562,83.95443,320,64.48307Z" style="fill:#e29971"/><circle cx="202.66667" cy="224" r="32" style="fill:#c4eaf5"/><circle cx="309.33333" cy="224" r="32" style="fill:#c4eaf5"/><polygon points="234.667 234.667 234.667 256 277.333 256 277.333 192 320 192 320 170.667 256 170.667 256 234.667 234.667 234.667" style="fill:#cb7956"/><rect x="298.66667" y="192" width="21.33333" height="21.33333" style="fill:#4c2c1a"/><rect x="192" y="192" width="21.33333" height="21.33333" style="fill:#4c2c1a"/><rect x="234.66667" y="277.33333" width="42.66667" height="21.33335" style="fill:#ce464d"/><rect x="192" y="149.33333" width="64" height="21.33333" style="fill:#e29971"/><rect x="213.33333" y="106.66667" width="85.33333" height="21.33333" style="fill:#e29971"/><rect x="192" y="128" width="128" height="21.33333" style="fill:#f5d9cb"/><rect x="213.33333" y="277.33333" width="21.33333" height="42.66667" style="fill:#e29971"/><rect x="277.33333" y="277.33333" width="21.33333" height="42.66667" style="fill:#cb7956"/><path d="M192,341.33333l-21.33333,21.33334v.00006a63.99993,63.99993,0,0,0,63.99993,63.99994h42.66673Z" style="fill:#d7686d"/><circle cx="245.33333" cy="458.66667" r="10.66667" style="fill:#c6262d"/><rect x="256" y="448" width="21.33333" height="42.66667" style="fill:#d7686d"/><path d="M149.33333,213.33333l21.33334-42.66666v-64H192v.00006a63.99994,63.99994,0,0,0,63.99994,63.99994H293.6306a77.18465,77.18465,0,0,1,69.036,42.66662l0,0H384V149.33321A127.99987,127.99987,0,0,0,256.00013,21.33333h-.00026A127.99987,127.99987,0,0,0,128,149.33321v64.00012Z" style="fill:#e0e5e8"/><path d="M192,106.66667a63.99984,63.99984,0,0,0,64,64h37.63021a77.18322,77.18322,0,0,1,69.03646,42.66666H384v-64A127.84252,127.84252,0,0,0,192,38.59766Z" style="fill:#c4ced3"/><rect x="170.66667" y="85.33333" width="21.33333" height="21.33333" style="fill:#e29971"/><path d="M344.45833,188.875c-.0625-.05208-20.1875-18.20833-77.79166-18.20833-46.75,0-74.66667-23.92709-74.66667-64h21.33333c0,35.26041,29,42.66666,53.33334,42.66666,66.5,0,90.375,21.95834,92.875,24.45834Z" style="fill:#a2b2ba"/><path d="M341.33333,117.33333H320C320,80.39583,281.35417,64,266.66667,64h-32V42.66667h32C293.46875,42.66667,341.33333,67.61458,341.33333,117.33333Z" style="fill:#e0e5e8"/><rect x="149.33333" y="106.66667" width="21.33333" height="64" style="fill:#c4ced3"/></g></svg>