<svg xmlns="http://www.w3.org/2000/svg" viewBox="0 0 512 512"><title>Artboard 148</title><g id="Male_Muslim" data-name="Male Muslim"><rect x="341.33333" y="192" width="42.66667" height="64" rx="21.33331" ry="21.33331" style="fill:#cb7956"/><rect x="128" y="192" width="42.66667" height="64" rx="21.33331" ry="21.33331" style="fill:#e29971"/><path d="M192,277.33333v64a21.33334,21.33334,0,0,1-21.33333,21.33334h-64A85.33333,85.33333,0,0,0,21.33333,448v42.66667H490.66667V448a85.33333,85.33333,0,0,0-85.33334-85.33333h-64A21.33334,21.33334,0,0,1,320,341.33333v-64Z" style="fill:#e29971"/><rect x="149.33333" y="405.33333" width="85.33333" height="42.66667" rx="21.33331" ry="21.33331" style="fill:#edbda4"/><circle cx="213.33333" cy="426.66667" r="21.33333" style="fill:#f5d9cb"/><path d="M341.33333,362.66667A21.33356,21.33356,0,0,1,320,341.33333v-64H256v85.33334h21.33333V384H234.66667v21.33333a21.33333,21.33333,0,1,0,42.66666,0h85.33334V362.66667Z" style="fill:#cb7956"/><path d="M341.33333,362.66667V341.33333h-64v21.33334H234.66667v128h256V448a85.33333,85.33333,0,0,0-85.33334-85.33333Z" style="fill:#086b47"/><rect x="426.66667" y="448" width="21.33333" height="42.66667" style="fill:#004c33"/><rect x="384" y="448" width="42.66667" height="42.66667" style="fill:#088156"/><rect x="256" y="384" width="42.66667" height="106.66667" style="fill:#00593b"/><path d="M170.66667,362.66667V341.33333h64v21.33334h42.66666v128h-256V448a85.33333,85.33333,0,0,1,85.33334-85.33333Z" style="fill:#339773"/><rect x="149.33333" y="42.66667" width="213.33333" height="298.66656" rx="106.66656" ry="106.66656" style="fill:#edbda4"/><path d="M320,64.48307v84.85026H277.33333v21.33334H320v42.66659a21.33333,21.33333,0,0,1,21.33333,21.33333v.00008A21.33333,21.33333,0,0,1,320,256H256v64h21.33333v19.18359a106.69065,106.69065,0,0,0,85.33334-104.51692V149.33333C362.66667,114.54948,345.76563,83.95443,320,64.48307Z" style="fill:#e29971"/><path d="M179.95833,157.25l-5.25-20.6875c36.95834-9.35417,79.66667-8.52083,81.52084-8.5625l-.4375,21.33333C255.35417,149.30208,214.08333,148.60417,179.95833,157.25Z" style="fill:#e29971"/><polygon points="234.667 234.667 234.667 256 277.333 256 277.333 192 320 192 320 170.667 256 170.667 256 234.667 234.667 234.667" style="fill:#cb7956"/><rect x="298.66667" y="192" width="21.33333" height="21.33333" style="fill:#4c2c1a"/><rect x="192" y="192" width="21.33333" height="21.33333" style="fill:#4c2c1a"/><rect x="234.66667" y="277.33333" width="42.66667" height="21.33333" style="fill:#ce464d"/><path d="M64,490.66667H42.66667V448a64.07,64.07,0,0,1,64-64v21.33333A42.71555,42.71555,0,0,0,64,448Z" style="fill:#57a98c"/><path d="M341.33333,128v85.33331h21.33334l0-21.33331S384,192,384,170.66667V149.33333Z" style="fill:#552a1f"/><path d="M128,149.33333v21.33334C128,192,149.33333,192,149.33333,192v21.33333h21.33334V128Z" style="fill:#8f492b"/><path d="M255.99987,21.33333h.00026A127.99987,127.99987,0,0,1,384,149.33321v.00012S341.33333,128,256,128s-128,21.33333-128,21.33333v-.00012A127.99987,127.99987,0,0,1,255.99987,21.33333Z" style="fill:#95daec"/><path d="M247.58073,21.75911C252.82031,33.14974,256,46.96875,256,64c0,24.3138-7.3138,48.349-25.11719,64.76693C162.47786,132.34766,128,149.33333,128,149.33333A127.90224,127.90224,0,0,1,247.58073,21.75911Z" style="fill:#caecf6"/><circle cx="266.66667" cy="394.66667" r="10.66667" style="fill:#088156"/><circle cx="266.66667" cy="458.66667" r="10.66667" style="fill:#088156"/><rect x="341.33333" y="362.66667" width="64" height="21.33333" style="fill:#088156"/><rect x="106.66667" y="362.66667" width="64" height="21.33333" style="fill:#57a98c"/><rect x="170.66667" y="341.33333" width="21.33333" height="21.33333" style="fill:#088156"/><rect x="320" y="341.33333" width="21.33333" height="21.33333" style="fill:#004c33"/><circle cx="288" cy="96" r="10.66667" style="fill:#72cee6"/><circle cx="202.66667" cy="96" r="10.66667" style="fill:#95daec"/><circle cx="202.66667" cy="53.33333" r="10.66667" style="fill:#95daec"/><circle cx="330.66667" cy="74.66667" r="10.66667" style="fill:#72cee6"/><circle cx="288" cy="53.33333" r="10.66667" style="fill:#72cee6"/><circle cx="352" cy="117.33333" r="10.66667" style="fill:#72cee6"/><circle cx="245.33333" cy="74.66667" r="10.66667" style="fill:#95daec"/><circle cx="160" cy="117.33333" r="10.66667" style="fill:#95daec"/></g></svg>