<svg xmlns="http://www.w3.org/2000/svg" viewBox="0 0 512 512"><title>Artboard 105</title><g id="Asian_Old_Man" data-name="Asian Old Man"><rect x="128" y="149.33333" width="256" height="277.33333" style="fill:#c4ced3"/><rect x="256" y="149.33333" width="128" height="277.33333" style="fill:#a2b2ba"/><rect x="128" y="192" width="21.33333" height="106.66667" style="fill:#e0e5e8"/><rect x="149.33333" y="298.66667" width="21.33333" height="106.66667" style="fill:#a2b2ba"/><rect x="170.66667" y="192" width="21.33333" height="192" style="fill:#607a8a"/><rect x="320" y="192" width="21.33333" height="192" style="fill:#607a8a"/><rect x="362.66667" y="277.33333" width="21.33333" height="106.66667" style="fill:#c4ced3"/><rect x="341.33333" y="192" width="42.66667" height="64" rx="21.33331" ry="21.33331" style="fill:#cb7956"/><rect x="128" y="192" width="42.66667" height="64" rx="21.33331" ry="21.33331" style="fill:#e29971"/><path d="M192,277.33333v64a21.33334,21.33334,0,0,1-21.33333,21.33334h-64A85.33333,85.33333,0,0,0,21.33333,448v42.66667H490.66667V448a85.33333,85.33333,0,0,0-85.33334-85.33333h-64A21.33334,21.33334,0,0,1,320,341.33333v-64Z" style="fill:#e29971"/><path d="M341.33333,362.66667A21.33356,21.33356,0,0,1,320,341.33333v-64H256v85.33334l21.33333,0V384l-42.66666,0v21.33331a21.33333,21.33333,0,1,0,42.66666,0h85.33334V362.66667Z" style="fill:#cb7956"/><path d="M170.66667,490.66667h320V448a85.33333,85.33333,0,0,0-85.33334-85.33333h-64L320,341.33333l-21.33333,21.33334Z" style="fill:#e8a8ab"/><polygon points="256 405.333 277.333 384 384 490.667 341.333 490.667 256 405.333" style="fill:#e08a8e"/><polygon points="341.333 362.667 213.333 490.667 277.333 490.667 405.333 362.667 341.333 362.667" style="fill:#d7686d"/><path d="M192,341.33333l21.33333,21.33334,128,128h-320V448a85.33333,85.33333,0,0,1,85.33334-85.33333h64Z" style="fill:#f1cacc"/><polygon points="170.667 362.667 298.667 490.667 234.667 490.667 106.667 362.667 170.667 362.667" style="fill:#e8a8ab"/><path d="M64,490.66667H42.66667V448a64.07,64.07,0,0,1,64-64v21.33333A42.71555,42.71555,0,0,0,64,448Z" style="fill:#f7dfe0"/><rect x="149.33333" y="42.66667" width="213.33333" height="298.66656" rx="106.66656" ry="106.66656" style="fill:#edbda4"/><path d="M320,64.48307v84.85026H277.33333v21.33334H320v42.66659a21.33333,21.33333,0,0,1,21.33333,21.33333v.00008A21.33333,21.33333,0,0,1,320,256H256v64h21.33333v19.18359a106.69065,106.69065,0,0,0,85.33334-104.51692V149.33333C362.66667,114.54948,345.76562,83.95443,320,64.48307Z" style="fill:#e29971"/><rect x="213.33333" y="277.33333" width="21.33333" height="42.66667" style="fill:#e29971"/><rect x="277.33333" y="277.33333" width="21.33333" height="42.66667" style="fill:#cb7956"/><polygon points="234.667 234.667 234.667 256 277.333 256 277.333 192 320 192 320 170.667 256 170.667 256 234.667 234.667 234.667" style="fill:#cb7956"/><rect x="298.66667" y="192" width="21.33333" height="21.33333" style="fill:#4c2c1a"/><rect x="192" y="192" width="21.33333" height="21.33333" style="fill:#4c2c1a"/><rect x="234.66667" y="277.33333" width="42.66667" height="21.33333" style="fill:#ce464d"/><rect x="192" y="149.33333" width="64" height="21.33333" style="fill:#e29971"/><rect x="213.33333" y="106.66667" width="85.33333" height="21.33333" style="fill:#e29971"/><rect x="192" y="128" width="128" height="21.33333" style="fill:#f5d9cb"/><rect x="192" y="277.33333" width="21.33333" height="149.33333" style="fill:#e0e5e8"/><rect x="298.66667" y="277.33333" width="21.33333" height="149.33333" style="fill:#c4ced3"/><rect x="213.33333" y="256" width="85.33333" height="21.33333" style="fill:#e0e5e8"/><rect x="256" y="256" width="42.66667" height="21.33333" style="fill:#c4ced3"/><path d="M341.33333,213.33333v-128S298.66667,106.66667,256,106.66667s-85.33333-21.33334-85.33333-21.33334v128L128,192V149.33333A127.99987,127.99987,0,0,1,255.99987,21.33346h.00026A127.99987,127.99987,0,0,1,384,149.33333V192Z" style="fill:#e0e5e8"/><path d="M256,21.33333a128.31776,128.31776,0,0,0-27.26562,2.97787,42.4902,42.4902,0,0,1-.60547,79.5651A156.559,156.559,0,0,0,256,106.66667c42.66667,0,85.33333-21.33334,85.33333-21.33334v128L384,192V149.33333A127.99966,127.99966,0,0,0,256,21.33333Z" style="fill:#c4ced3"/><rect x="341.33333" y="106.66667" width="21.33333" height="85.33333" style="fill:#e0e5e8"/><rect x="149.33333" y="106.66667" width="21.33333" height="85.33333" style="fill:#f2f4f5"/><rect x="192" y="64" width="64" height="21.33333" style="fill:#f2f4f5"/><rect x="277.33333" y="64" width="42.66667" height="21.33333" style="fill:#e0e5e8"/></g></svg>