<svg xmlns="http://www.w3.org/2000/svg" viewBox="0 0 512 512"><title>Artboard 132</title><g id="Male_Scientist" data-name="Male Scientist"><path d="M405.33333,170.66667H448c0-42.66667-42.66667-64-42.66667-64h21.33334C405.33333,64,341.33333,21.33333,256,21.33333S106.66667,64,85.33333,106.66667h21.33334S64,128,64,170.66667h42.66667S64,213.33333,64,256h42.66667s-21.33334,42.66667-21.33334,85.33333L128,320l-21.33333,64H405.33333L384,320l42.66667,21.33333c0-42.66666-21.33334-85.33333-21.33334-85.33333H448C448,213.33333,405.33333,170.66667,405.33333,170.66667Z" style="fill:#e0e5e8"/><path d="M405.33333,106.66667h21.33334C406.69792,66.72786,349.07812,27.25781,271.83854,22.3138,263.3138,32.65234,256,46.40885,256,64c0,42.66667,42.66667,64,42.66667,64V362.66667h99.556L384,320l42.66667,21.33333c0-42.66666-21.33334-85.33333-21.33334-85.33333H448c0-42.66667-42.66667-85.33333-42.66667-85.33333H448C448,128,405.33333,106.66667,405.33333,106.66667Z" style="fill:#c4ced3"/><rect x="341.33333" y="192" width="42.66667" height="64" rx="21.33331" ry="21.33331" style="fill:#cb7956"/><rect x="128" y="192" width="42.66667" height="64" rx="21.33331" ry="21.33331" style="fill:#e29971"/><path d="M192,277.33333v64a21.33334,21.33334,0,0,1-21.33333,21.33334h-64A85.33333,85.33333,0,0,0,21.33333,448v42.66667H490.66667V448a85.33333,85.33333,0,0,0-85.33334-85.33333h-64A21.33334,21.33334,0,0,1,320,341.33333v-64Z" style="fill:#e29971"/><path d="M341.33333,362.66667A21.33356,21.33356,0,0,1,320,341.33333v-64H256v85.33334l21.33333,0V384l-42.66666,0v21.33331a21.33333,21.33333,0,1,0,42.66666,0h85.33334V362.66667Z" style="fill:#cb7956"/><path d="M234.66667,426.66667v64h256V448a85.33333,85.33333,0,0,0-85.33334-85.33333h-64L320,341.33333l-21.33333,21.33334Z" style="fill:#224552"/><polygon points="362.667 426.667 277.333 490.667 256 490.667 256 405.333 298.667 362.667 362.667 362.667 362.667 426.667" style="fill:#062d3c"/><path d="M192,341.33333l21.33333,21.33334,64,64v64h-256V448a85.33333,85.33333,0,0,1,85.33334-85.33333h64Z" style="fill:#345460"/><path d="M170.66667,341.33333H192l-21.33333,21.33334v128H21.33333V448a85.33333,85.33333,0,0,1,85.33334-85.33333h42.66669Z" style="fill:#caecf6"/><path d="M320,341.33333l21.33333,21.33329v128H490.66667V448a85.33333,85.33333,0,0,0-85.33334-85.33333H362.66664l-21.33331-21.33334Z" style="fill:#95daec"/><path d="M362.66664,362.66667S448,384,469.33333,490.66667H362.66666Z" style="fill:#72cee6"/><path d="M341.33333,341.33333s64,21.33334,85.33334,85.33334L384,448l42.66667,42.66667H341.33333V341.33333Z" style="fill:#caecf6"/><path d="M170.66667,341.33333s-64,21.33334-85.33334,85.33334L128,448,85.33333,490.66667h85.33334V341.33333Z" style="fill:#e7f6fa"/><polygon points="149.333 384 170.667 362.667 170.667 490.667 149.333 490.667 149.333 384" style="fill:#b4e5f2"/><polygon points="341.333 362.667 362.667 384 362.667 490.667 341.333 490.667 341.333 362.667" style="fill:#e7f6fa"/><path d="M64,490.66667H42.66667V448a64.07,64.07,0,0,1,64-64v21.33333A42.70887,42.70887,0,0,0,64,448Z" style="fill:#e7f6fa"/><polygon points="234.667 384 192 384 192 426.667 277.333 426.667 234.667 384" style="fill:#224552"/><rect x="149.33333" y="42.66667" width="213.33333" height="298.66656" rx="106.66656" ry="106.66656" style="fill:#edbda4"/><path d="M320,64.48307v84.85026H277.33333v21.33334H320v42.66659a21.33333,21.33333,0,0,1,21.33333,21.33333v.00008A21.33333,21.33333,0,0,1,320,256H256v64h21.33333v19.18359a106.69065,106.69065,0,0,0,85.33334-104.51692V149.33333C362.66667,114.54948,345.76562,83.95443,320,64.48307Z" style="fill:#e29971"/><circle cx="202.66667" cy="202.66667" r="32" style="fill:#c4eaf5"/><polygon points="234.667 234.667 234.667 256 277.333 256 277.333 192 320 192 320 170.667 256 170.667 256 234.667 234.667 234.667" style="fill:#cb7956"/><rect x="192" y="192" width="21.33333" height="21.33333" style="fill:#4c2c1a"/><path d="M234.66667,277.33333h42.66667a0,0,0,0,1,0,0v21.33335A21.33331,21.33331,0,0,1,256,320h0a21.33331,21.33331,0,0,1-21.33331-21.33331V277.33333A0,0,0,0,1,234.66667,277.33333Z" style="fill:#ce464d"/><rect x="192" y="149.33333" width="64" height="21.33333" style="fill:#e29971"/><rect x="213.33333" y="106.66667" width="85.33333" height="21.33333" style="fill:#e29971"/><rect x="192" y="128" width="128" height="21.33333" style="fill:#f5d9cb"/><rect x="213.33333" y="277.33333" width="21.33333" height="21.33333" style="fill:#e29971"/><rect x="277.33333" y="277.33333" width="21.33333" height="21.33333" style="fill:#cb7956"/><circle cx="309.33333" cy="202.66667" r="32" style="fill:#c4eaf5"/><rect x="298.66667" y="192" width="21.33333" height="21.33333" style="fill:#4c2c1a"/><polygon points="192 341.333 170.667 362.667 170.667 405.333 234.667 384 192 341.333" style="fill:#4c6a74"/><circle cx="245.33333" cy="437.33333" r="10.66667" style="fill:#062d3c"/><polygon points="277.333 384 341.333 405.333 341.333 362.667 320 341.333 277.333 384" style="fill:#345460"/><rect x="256" y="448" width="21.33333" height="42.66667" style="fill:#4c6a74"/><path d="M149.33333,213.33333l21.33334-42.66666V128L192,106.66667H320L341.33333,128v42.66667l21.33334,42.66666L384,192V170.66654A127.99987,127.99987,0,0,0,256.00013,42.66667h-.00026A127.99987,127.99987,0,0,0,128,170.66654V192Z" style="fill:#e0e5e8"/><path d="M260.11068,42.875A60.08155,60.08155,0,0,0,256,64c0,18.17318,7.80469,32.23438,16.69141,42.66667H320L341.33333,128v42.66667l21.33334,42.66666L384,192V170.66667A127.90741,127.90741,0,0,0,260.11068,42.875Z" style="fill:#c4ced3"/><rect x="170.66667" y="85.33333" width="85.33333" height="21.33333" style="fill:#c4ced3"/><rect x="277.33333" y="85.33333" width="64" height="21.33333" style="fill:#a2b2ba"/><rect x="128" y="170.66667" width="21.33333" height="21.33333" style="fill:#f2f4f5"/><rect x="362.66667" y="170.66667" width="21.33333" height="21.33333" style="fill:#e0e5e8"/><rect x="149.33333" y="128" width="21.33333" height="21.33333" style="fill:#c4ced3"/><rect x="362.66667" y="128" width="21.33333" height="21.33333" style="fill:#e0e5e8"/><rect x="341.33333" y="128" width="21.33333" height="42.66667" style="fill:#a2b2ba"/><path d="M146.20833,103.54167,131.125,88.45833c1.86458-1.875,46.57292-45.79166,114.20833-45.79166V64C186.4375,64,146.60417,103.14583,146.20833,103.54167Z" style="fill:#f2f4f5"/><path d="M106.66667,170.66667H85.33333c0-1.48959.28125-36.69792,24.45834-60.875L124.875,124.875C106.875,142.875,106.66667,170.39583,106.66667,170.66667Z" style="fill:#f2f4f5"/><path d="M106.66667,256H85.33333c0-1.48958.28125-36.69792,24.45834-60.875L124.875,210.20833C106.875,228.20833,106.66667,255.72917,106.66667,256Z" style="fill:#f2f4f5"/><path d="M128,320H106.66667c0-1.48958.28125-36.69792,24.45833-60.875l15.08333,15.08333C128.20833,292.20833,128,319.72917,128,320Z" style="fill:#f2f4f5"/><path d="M365.79167,103.54167C327.11458,64.86458,288.33333,64,287.94792,64L288,42.66667c1.92708,0,47.60417.52083,92.875,45.79166Z" style="fill:#e0e5e8"/></g></svg>