<svg xmlns="http://www.w3.org/2000/svg" viewBox="0 0 512 512"><title>Artboard 117</title><g id="Old_Business_Man" data-name="Old Business Man"><circle cx="288" cy="74.66667" r="53.33333" style="fill:#c4ced3"/><circle cx="224" cy="74.66667" r="53.33333" style="fill:#e0e5e8"/><circle cx="309.33333" cy="138.66667" r="74.66667" style="fill:#c4ced3"/><circle cx="202.66667" cy="138.66667" r="74.66667" style="fill:#e0e5e8"/><rect x="341.33333" y="192" width="42.66667" height="64" rx="21.33331" ry="21.33331" style="fill:#cb7956"/><rect x="128" y="192" width="42.66667" height="64" rx="21.33331" ry="21.33331" style="fill:#e29971"/><path d="M192,277.33333v64a21.33334,21.33334,0,0,1-21.33333,21.33334h-64A85.33333,85.33333,0,0,0,21.33333,448v42.66667H490.66667V448a85.33333,85.33333,0,0,0-85.33334-85.33333h-64A21.33334,21.33334,0,0,1,320,341.33333v-64Z" style="fill:#e29971"/><path d="M341.33333,362.66667A21.33356,21.33356,0,0,1,320,341.33333v-64H256v85.33334l21.33333,0V384l-42.66666,0v21.33331a21.33333,21.33333,0,1,0,42.66666,0h85.33334V362.66667Z" style="fill:#cb7956"/><path d="M256,384V490.66667H490.66667V448a85.33333,85.33333,0,0,0-85.33334-85.33333h-64L320,341.33333Z" style="fill:#95daec"/><polygon points="298.667 448 298.667 490.667 256 490.667 256 426.667 277.333 405.333 341.333 405.333 298.667 448" style="fill:#3ebcdd"/><path d="M192,341.33333,256,384V490.66667H21.33333V448a85.33333,85.33333,0,0,1,85.33334-85.33333h64Z" style="fill:#caecf6"/><rect x="170.66667" y="405.33333" width="21.33333" height="85.33333" style="fill:#95daec"/><polygon points="213.333 405.333 234.667 426.667 213.333 490.667 298.667 490.667 277.333 426.667 301.334 406.667 256 384 213.333 405.333" style="fill:#ce464d"/><rect x="234.66667" y="384" width="42.66667" height="21.33333" style="fill:#d7686d"/><rect x="234.66667" y="448" width="21.33333" height="42.66667" style="fill:#d7686d"/><rect x="234.66667" y="469.33333" width="21.33333" height="21.33333" style="fill:#e8a8ab"/><rect x="234.66667" y="426.66667" width="42.66667" height="21.33333" style="fill:#ab0008"/><rect x="256" y="405.33333" width="21.33333" height="21.33333" style="fill:#c6262d"/><path d="M170.66667,341.33333H192l-21.33333,21.33334v128H21.33333V448a85.33333,85.33333,0,0,1,85.33334-85.33333h42.66669Z" style="fill:#345460"/><path d="M64,490.66667H42.66667V448a64.07,64.07,0,0,1,64-64v21.33333A42.71555,42.71555,0,0,0,64,448Z" style="fill:#607a8a"/><path d="M320,341.33333l21.33333,21.33329v128H490.66667V448a85.33333,85.33333,0,0,0-85.33334-85.33333H362.66664l-21.33331-21.33334Z" style="fill:#224552"/><path d="M362.66664,362.66667S448,384,469.33333,490.66667H362.66666Z" style="fill:#062d3c"/><polygon points="192 341.333 170.667 362.667 170.667 426.667 256 384 192 341.333" style="fill:#e7f6fa"/><polygon points="256 384 341.333 426.667 341.333 362.667 320 341.333 256 384" style="fill:#caecf6"/><path d="M170.66667,341.33333s-64,21.33334-85.33334,85.33334L128,448,85.33333,490.66667h85.33334V341.33333Z" style="fill:#4c6a74"/><path d="M341.33333,341.33333s64,21.33334,85.33334,85.33334L384,448l42.66667,42.66667H341.33333V341.33333Z" style="fill:#345460"/><polygon points="149.333 384 170.667 362.667 170.667 490.667 149.333 490.667 149.333 384" style="fill:#345460"/><polygon points="341.333 362.667 362.667 384 362.667 490.667 341.333 490.667 341.333 362.667" style="fill:#4c6a74"/><rect x="149.33333" y="42.66667" width="213.33333" height="298.66656" rx="106.66656" ry="106.66656" style="fill:#edbda4"/><path d="M320,64.48307v84.85026H277.33333v21.33334H320v42.66659a21.33333,21.33333,0,0,1,21.33333,21.33333v.00008A21.33333,21.33333,0,0,1,320,256H256v64h21.33333v19.18359a106.69065,106.69065,0,0,0,85.33334-104.51692V149.33333C362.66667,114.54948,345.76562,83.95443,320,64.48307Z" style="fill:#e29971"/><rect x="170.66667" y="213.33333" width="64" height="42.66667" rx="21.33331" ry="21.33331" style="fill:#c4eaf5"/><rect x="277.33333" y="213.33333" width="64" height="42.66667" rx="21.33331" ry="21.33331" style="fill:#c4eaf5"/><rect x="192" y="234.66667" width="21.33333" height="21.33333" style="fill:#e7f6fa"/><rect x="298.66667" y="234.66667" width="21.33333" height="21.33333" style="fill:#e7f6fa"/><polygon points="234.667 234.667 234.667 256 277.333 256 277.333 192 320 192 320 170.667 256 170.667 256 234.667 234.667 234.667" style="fill:#cb7956"/><rect x="298.66667" y="192" width="21.33333" height="21.33333" style="fill:#4c2c1a"/><rect x="192" y="192" width="21.33333" height="21.33333" style="fill:#4c2c1a"/><rect x="234.66667" y="277.33333" width="42.66667" height="21.33333" style="fill:#ce464d"/><rect x="192" y="149.33333" width="64" height="21.33333" style="fill:#e29971"/><rect x="213.33333" y="106.66667" width="85.33333" height="21.33333" style="fill:#e29971"/><rect x="192" y="128" width="128" height="21.33333" style="fill:#f5d9cb"/><rect x="213.33333" y="277.33333" width="21.33333" height="42.66667" style="fill:#e29971"/><rect x="277.33333" y="277.33333" width="21.33333" height="42.66667" style="fill:#cb7956"/><rect x="149.33333" y="85.33333" width="21.33333" height="128" style="fill:#e0e5e8"/><rect x="149.33333" y="85.33333" width="21.33333" height="21.33333" style="fill:#f2f4f5"/><rect x="149.33333" y="128" width="21.33333" height="21.33333" style="fill:#f2f4f5"/><rect x="341.33333" y="85.33333" width="21.33333" height="128" style="fill:#c4ced3"/><rect x="341.33333" y="85.33333" width="21.33333" height="21.33333" style="fill:#a2b2ba"/><rect x="341.33333" y="128" width="21.33333" height="21.33333" style="fill:#a2b2ba"/></g></svg>