<svg xmlns="http://www.w3.org/2000/svg" viewBox="0 0 512 512"><title>Artboard 104</title><g id="Asian_Old_Woman" data-name="Asian Old Woman"><circle cx="384" cy="106.66667" r="64" style="fill:#c4ced3"/><path d="M437.33333,106.66667H416a32.035,32.035,0,0,0-32-32V53.33333A53.39612,53.39612,0,0,1,437.33333,106.66667Z" style="fill:#e0e5e8"/><circle cx="128" cy="106.66667" r="64" style="fill:#c4ced3"/><path d="M96,106.66667H74.66667A53.39612,53.39612,0,0,1,128,53.33333V74.66667A32.035,32.035,0,0,0,96,106.66667Z" style="fill:#f2f4f5"/><circle cx="341.33333" cy="106.66667" r="64" style="fill:#c6262d"/><circle cx="170.66667" cy="106.66667" r="64" style="fill:#cb393f"/><rect x="341.33333" y="192" width="42.66667" height="64" rx="21.33331" ry="21.33331" style="fill:#cb7956"/><rect x="128" y="192" width="42.66667" height="64" rx="21.33331" ry="21.33331" style="fill:#e29971"/><path d="M192,277.33333v64a21.33334,21.33334,0,0,1-21.33333,21.33334h-64A85.33333,85.33333,0,0,0,21.33333,448v42.66667H490.66667V448a85.33333,85.33333,0,0,0-85.33334-85.33333h-64A21.33334,21.33334,0,0,1,320,341.33333v-64Z" style="fill:#e29971"/><path d="M341.33333,362.66667A21.33356,21.33356,0,0,1,320,341.33333v-64H234.66667v128a21.33333,21.33333,0,1,0,42.66666,0h85.33334V362.66667Z" style="fill:#cb7956"/><path d="M170.66667,341.33333h64V384h42.66666V341.33333h64v21.33334h64A85.33333,85.33333,0,0,1,490.66667,448v42.66667H21.33333V448a85.33333,85.33333,0,0,1,85.33334-85.33333h64Z" style="fill:#c6262d"/><path d="M384,362.66667h0A21.33331,21.33331,0,0,1,405.33333,384v21.33335a0,0,0,0,1,0,0H384A21.33331,21.33331,0,0,1,362.66667,384v0A21.33331,21.33331,0,0,1,384,362.66667Z" style="fill:#d7686d"/><rect x="341.33333" y="384" width="85.33333" height="106.66667" style="fill:#95070c"/><rect x="149.33333" y="42.66667" width="213.33333" height="298.66656" rx="106.66656" ry="106.66656" style="fill:#edbda4"/><path d="M320,64.48307v84.85026H277.33333v21.33334H320v42.66659a21.33333,21.33333,0,0,1,21.33333,21.33333v.00008A21.33333,21.33333,0,0,1,320,256H256v64h21.33333v19.18359a106.69065,106.69065,0,0,0,85.33334-104.51692V149.33333C362.66667,114.54948,345.76563,83.95443,320,64.48307Z" style="fill:#e29971"/><polygon points="234.667 234.667 234.667 256 277.333 256 277.333 192 320 192 320 170.667 256 170.667 256 234.667 234.667 234.667" style="fill:#cb7956"/><rect x="298.66667" y="192" width="21.33333" height="21.33333" style="fill:#4c2c1a"/><rect x="192" y="192" width="21.33333" height="21.33333" style="fill:#4c2c1a"/><rect x="234.66667" y="277.33333" width="42.66667" height="21.33333" style="fill:#ce464d"/><rect x="192" y="149.33333" width="64" height="21.33333" style="fill:#e29971"/><rect x="213.33333" y="106.66667" width="85.33333" height="21.33333" style="fill:#e29971"/><rect x="192" y="128" width="128" height="21.33333" style="fill:#f5d9cb"/><rect x="213.33333" y="277.33333" width="21.33333" height="42.66667" style="fill:#e29971"/><rect x="277.33333" y="277.33333" width="21.33333" height="42.66667" style="fill:#cb7956"/><path d="M106.66667,192l42.66666,21.33333V170.66656l21.33328-21.33328.00006-63.99995h42.66666l1.80325,1.80325a317.56177,317.56177,0,0,0,147.53,83.53007l.00009,0v42.66666L405.33333,192V170.66652A149.33319,149.33319,0,0,0,256.00015,21.33333h-.0003A149.33319,149.33319,0,0,0,106.66667,170.66652Z" style="fill:#e0e5e8"/><path d="M381.90625,159.79167C272.5,137.91667,207.51042,52.6875,204.80208,49.0625l17.0625-12.80208c.61459.82291,63.02084,82.375,164.22917,102.61458Z" style="fill:#f2f4f5"/><path d="M384,384l21.33333,106.66667h-384V448a85.33333,85.33333,0,0,1,85.33334-85.33333h64V341.33333h64l0,42.66667Z" style="fill:#ce464d"/><path d="M448,448h21.33335a21.33331,21.33331,0,0,1,21.33331,21.33331v0a21.33331,21.33331,0,0,1-21.33331,21.33331h0A21.33331,21.33331,0,0,1,448,469.33335V448A0,0,0,0,1,448,448Z" transform="translate(0 938.66667) rotate(-90)" style="fill:#d7686d"/><path d="M234.66667,469.33333a21.33272,21.33272,0,0,0-21.33334,21.33334H256A21.33272,21.33272,0,0,0,234.66667,469.33333Z" style="fill:#f1cacc"/><path d="M64,490.66667H42.66667V448a64.07,64.07,0,0,1,64-64v21.33333A42.70887,42.70887,0,0,0,64,448Z" style="fill:#d7686d"/><rect x="149.33333" y="85.33333" width="21.33333" height="21.33333" style="fill:#f2f4f5"/><rect x="149.33333" y="128" width="21.33333" height="21.33333" style="fill:#f2f4f5"/><rect x="128" y="170.66667" width="21.33333" height="21.33333" style="fill:#f2f4f5"/><rect x="362.66667" y="170.66667" width="21.33333" height="21.33333" style="fill:#f2f4f5"/><rect x="213.33333" y="341.33333" width="21.33333" height="42.66667" style="fill:#e08a8e"/><rect x="213.33333" y="362.66667" width="21.33333" height="21.33333" style="fill:#d7686d"/><rect x="277.33333" y="341.33333" width="42.66667" height="21.33333" style="fill:#cb393f"/><rect x="277.33333" y="341.33333" width="21.33333" height="42.66667" style="fill:#cb393f"/><rect x="213.33333" y="384" width="149.33333" height="21.33333" style="fill:#e8a8ab"/><rect x="128" y="362.66667" width="64" height="21.33333" style="fill:#cb393f"/><rect x="362.66667" y="426.66667" width="64" height="21.33333" style="fill:#c6262d"/><rect x="362.66667" y="469.33333" width="64" height="21.33333" style="fill:#c6262d"/><rect x="384" y="426.66667" width="42.66667" height="21.33333" style="fill:#ab0008"/><rect x="384" y="469.33333" width="42.66667" height="21.33333" style="fill:#ab0008"/><path d="M128,426.66667h0A21.33331,21.33331,0,0,1,149.33333,448v21.33335a0,0,0,0,1,0,0H128A21.33331,21.33331,0,0,1,106.66667,448v0A21.33331,21.33331,0,0,1,128,426.66667Z" style="fill:#f1cacc"/><path d="M320,384h0a21.33331,21.33331,0,0,1,21.33331,21.33331v0A21.33331,21.33331,0,0,1,320,426.66667H298.66667a0,0,0,0,1,0,0V405.33331A21.33331,21.33331,0,0,1,320,384Z" style="fill:#f1cacc"/></g></svg>