<svg xmlns="http://www.w3.org/2000/svg" viewBox="0 0 512 512"><title>Artboard 147</title><g id="Afro_Old_Sport_Woman" data-name="Afro Old Sport Woman"><rect x="341.33333" y="192" width="42.66667" height="64" rx="21.33331" ry="21.33331" style="fill:#361200"/><rect x="128" y="192" width="42.66667" height="64" rx="21.33331" ry="21.33331" style="fill:#552a1f"/><path d="M192,277.33333v64a21.33334,21.33334,0,0,1-21.33333,21.33334h-64A85.33333,85.33333,0,0,0,21.33333,448v42.66667H490.66667V448a85.33333,85.33333,0,0,0-85.33334-85.33333h-64A21.33334,21.33334,0,0,1,320,341.33333v-64Z" style="fill:#552a1f"/><rect x="384" y="448" width="42.66667" height="42.66667" style="fill:#361200"/><rect x="149.33333" y="405.33333" width="85.33333" height="42.66667" rx="21.33331" ry="21.33331" style="fill:#8f492b"/><circle cx="213.33333" cy="426.66667" r="21.33333" style="fill:#cb7956"/><path d="M341.33333,362.66667A21.33334,21.33334,0,0,1,320,341.33333v-64H234.66667v128a21.33333,21.33333,0,1,0,42.66666,0h85.33336A21.33331,21.33331,0,0,0,384,384v0a21.33331,21.33331,0,0,0-21.33331-21.33331Z" style="fill:#361200"/><path d="M362.66667,362.66667H341.33333S341.33333,448,256,448s-85.33333-85.33333-85.33333-85.33333H149.33333s0,85.33333-42.66666,128H405.33333C362.66667,448,362.66667,362.66667,362.66667,362.66667Z" style="fill:#086b47"/><path d="M266.66667,490.66667H256V469.33333h10.66667a95.26857,95.26857,0,0,0,77-38.65625l17.08333,12.75A117.83973,117.83973,0,0,1,266.66667,490.66667Z" style="fill:#004c33"/><rect x="149.33333" y="42.66667" width="213.33333" height="298.66656" rx="106.66656" ry="106.66656" style="fill:#8f492b"/><path d="M320,64.48307v84.85026H277.33333v21.33334H320v42.66659a21.33333,21.33333,0,0,1,21.33333,21.33333v.00008A21.33333,21.33333,0,0,1,320,256H256v64h21.33333v19.18359a106.69065,106.69065,0,0,0,85.33334-104.51692V149.33333C362.66667,114.54948,345.76562,83.95443,320,64.48307Z" style="fill:#552a1f"/><path d="M64,490.66667H42.66667V448a64.07,64.07,0,0,1,64-64v21.33333A42.71555,42.71555,0,0,0,64,448Z" style="fill:#8f492b"/><polygon points="234.667 234.667 234.667 256 277.333 256 277.333 192 320 192 320 170.667 256 170.667 256 234.667 234.667 234.667" style="fill:#361200"/><rect x="298.66667" y="192" width="21.33333" height="21.33333" style="fill:#290300"/><rect x="192" y="192" width="21.33333" height="21.33333" style="fill:#290300"/><rect x="234.66667" y="277.33333" width="42.66667" height="21.33333" style="fill:#c6262d"/><rect x="192" y="149.33333" width="64" height="21.33333" style="fill:#552a1f"/><rect x="213.33333" y="106.66667" width="85.33333" height="21.33333" style="fill:#552a1f"/><rect x="192" y="128" width="128" height="21.33333" style="fill:#cb7956"/><rect x="213.33333" y="277.33333" width="21.33333" height="42.66667" style="fill:#552a1f"/><rect x="277.33333" y="277.33333" width="21.33333" height="42.66667" style="fill:#361200"/><path d="M320,85.33333l-85.33333,64L213.33333,128l-42.66666,64-21.33334-21.33333v42.66666l-42.66666-42.66666V149.33333H85.33333s21.33334-128,170.66667-128c42.66667,0,64,21.33334,64,21.33334h.00009a85.33324,85.33324,0,0,1,85.33324,85.33324v42.66676l-42.66666,42.66666V170.66667L341.33333,192Z" style="fill:#a2b2ba"/><path d="M320,42.66667V85.33333L341.33333,192l21.33334-21.33333v42.66666l42.66666-42.66666V128A85.33254,85.33254,0,0,0,320,42.66667Z" style="fill:#607a8a"/><polygon points="384 106.667 362.667 106.667 362.667 213.333 384 192 384 106.667" style="fill:#345460"/><rect x="341.33333" y="64" width="21.33333" height="74.66667" style="fill:#a2b2ba"/><path d="M128,149.40625l-21.33333-.07292c0-15.86458,23.875-59.26041,69.54166-85.61458,41.41667-23.91667,99.14584-21.19792,101.6875-21.04167l-1.10416,21.3125c-.52084-.01041-54.0625-2.48958-89.91667,18.20834C147.72917,104.79167,128.45833,141.40625,128,149.40625Z" style="fill:#f2f4f5"/><rect x="213.33333" y="74.67083" width="106.66667" height="21.325" transform="translate(2.11541 177.01498) rotate(-36.8587)" style="fill:#f2f4f5"/></g></svg>